<svg width="39" height="39" viewBox="0 0 39 39" fill="none" xmlns="http://www.w3.org/2000/svg">
<g id="geeksforgeeks 1">
<path id="Vector" d="M9.20562 9.46238C8.12175 9.46238 7.17925 9.59238 6.3765 9.85401C5.57212 10.1156 4.86525 10.4325 4.251 10.8014L3.69525 9.88163H2.613L2.49113 16.5961H3.601C3.78957 15.8557 4.02457 15.1279 4.30463 14.417C4.58413 13.6939 4.94488 13.0488 5.38688 12.48C5.82372 11.9161 6.37826 11.4541 7.01188 11.1264C7.644 10.7851 8.40125 10.6129 9.28687 10.6129C10.2521 10.6129 11.1134 10.8111 11.8706 11.2076C12.6295 11.5976 13.2893 12.1778 13.8483 12.9545C14.3991 13.7036 14.8233 14.638 15.1206 15.756C15.4196 16.8773 15.5675 18.1253 15.5675 19.5065C15.5675 19.8185 15.5577 20.124 15.5399 20.4279H0V21.4159C0.216125 21.4419 0.51025 21.4874 0.879125 21.5508C1.23988 21.6044 1.534 21.6856 1.75987 21.7945C2.01552 21.9149 2.22123 22.1206 2.34162 22.3763C2.4505 22.62 2.50413 22.9093 2.50413 23.244V24.7325C2.50413 25.8148 2.49925 26.546 2.49113 26.9263C2.47729 27.2374 2.45941 27.5483 2.4375 27.859C3.59167 28.3849 4.79231 28.8022 6.02388 29.1054C7.17142 29.3885 8.34867 29.5336 9.53062 29.5376C10.7575 29.5376 11.9405 29.3085 13.078 28.847C14.193 28.4009 15.2057 27.7331 16.055 26.884C16.9377 25.9883 17.6327 24.9253 18.0992 23.7575C18.4052 23.0058 18.6175 22.2194 18.7314 21.4159H20.2686C20.3905 22.2463 20.6001 23.0279 20.9008 23.7559C21.4045 24.9844 22.087 26.0276 22.945 26.884C23.7947 27.7332 24.8081 28.4011 25.9236 28.847C27.0611 29.3085 28.2425 29.5376 29.4694 29.5376C30.615 29.5376 31.785 29.393 32.9761 29.1054C34.2082 28.8023 35.4094 28.385 36.5641 27.859C36.5446 27.6153 36.5267 27.3049 36.5089 26.9246C36.4971 26.1934 36.4928 25.4622 36.4959 24.7309V23.244C36.4959 22.9093 36.5495 22.62 36.6584 22.3763C36.7788 22.1206 36.9845 21.9149 37.2401 21.7945C37.4676 21.6856 37.7601 21.6044 38.1209 21.5508C38.4914 21.4874 38.7839 21.4419 39 21.4159V20.4279H23.4601C23.4414 20.1211 23.4321 19.8138 23.4325 19.5065C23.4325 18.1253 23.582 16.8756 23.8794 15.756C24.1768 14.638 24.6009 13.7036 25.1517 12.9545C25.7107 12.1778 26.3705 11.596 27.1278 11.2076C27.8866 10.8111 28.7479 10.6129 29.7147 10.6129C30.5987 10.6129 31.356 10.7835 31.9881 11.1264C32.6217 11.4541 33.1763 11.9161 33.6131 12.48C34.0551 13.0488 34.4159 13.6939 34.6954 14.417C34.9749 15.1304 35.2105 15.8568 35.399 16.5961H36.5105L36.3886 9.88163H35.3047L34.749 10.8014C34.0792 10.4062 33.3667 10.0883 32.6251 9.85401C31.8207 9.59401 30.8782 9.46238 29.7944 9.46238C28.4838 9.45349 27.1852 9.71112 25.9772 10.2196C24.8219 10.6973 23.7795 11.412 22.9174 12.3175C22.021 13.2572 21.3216 14.3666 20.8601 15.5805C20.372 16.8787 20.1285 18.2561 20.1419 19.643C20.1419 19.9095 20.1532 20.1695 20.1695 20.4279H18.8321C18.8484 20.1695 18.8581 19.9079 18.8581 19.6414C18.8581 18.1789 18.6192 16.8269 18.1415 15.5805C17.6796 14.3665 16.9796 13.2571 16.0826 12.3175C15.2209 11.4128 14.179 10.6987 13.0244 10.2213C11.816 9.7121 10.5168 9.45392 9.20562 9.46238ZM8.42075 21.4159H15.4408C15.3713 21.9364 15.2693 22.452 15.1353 22.9596C14.8726 23.9572 14.437 24.901 13.8483 25.7481C13.3067 26.535 12.5882 27.184 11.7504 27.6429C10.9102 28.1028 9.958 28.3335 8.89363 28.3335C8.15545 28.3431 7.42161 28.2193 6.7275 27.9679C6.06937 27.7241 5.60463 27.4674 5.33325 27.196C5.26133 26.7255 5.22547 26.2501 5.226 25.7741C5.21753 25.3679 5.21319 24.9617 5.213 24.5554V23.4991C5.213 23.1221 5.26662 22.7874 5.3755 22.4981C5.42614 22.3492 5.50949 22.2135 5.61944 22.101C5.72939 21.9886 5.86314 21.9021 6.01087 21.8481C6.30825 21.7133 6.7145 21.6141 7.22962 21.5508C7.62485 21.491 8.02217 21.446 8.42075 21.4159ZM23.5592 21.4159H30.5793C30.8685 21.4321 31.265 21.4793 31.7704 21.5508C32.2855 21.6141 32.6917 21.7133 32.9891 21.8481C33.3141 21.9846 33.5254 22.2008 33.6261 22.4981C33.7334 22.7874 33.7886 23.1221 33.7886 23.5008V24.557C33.7886 24.8901 33.7821 25.2964 33.774 25.7758C33.774 26.2535 33.7383 26.7264 33.6668 27.196C33.3954 27.4674 32.9306 27.7241 32.2725 27.9679C31.6225 28.2116 30.8994 28.3335 30.1064 28.3335C29.0404 28.3335 28.0881 28.1028 27.2496 27.6429C26.4118 27.184 25.6933 26.535 25.1517 25.7481C24.5629 24.9005 24.1273 23.9562 23.8647 22.958C23.7307 22.4503 23.6286 21.9364 23.5592 21.4159Z" fill="white"/>
</g>
</svg>
